<svg viewBox="0 0 63 70" focusable="false" class="chakra-icon css-2s84n9" href="/" xmlns="http://www.w3.org/2000/svg"><path d="M42.0379 59.3502L31.2138 52.4502L20.3897 59.3502L16.9159 57.4502L13.3917 59.5002L31.2138 69.8502L49.0359 59.4502L45.5117 57.4002L42.0379 59.3502ZM31.2138 65.6002L23.9641 61.3502L31.2138 56.7502L38.4635 61.3502L31.2138 65.6002Z" fill="white"></path><path d="M58.6518 38.1498V49.4998L52.5601 53.0998L44.5552 48.5998L40.8297 50.6998L52.5601 57.3998L62.3773 51.5998V37.4498V36.0498L58.6518 38.1498Z" fill="white"></path><path d="M58.6517 29.4501L50.6469 34.0501L54.322 36.1501L62.3772 31.5501V22.1001L58.6517 24.2001V29.4501Z" fill="white"></path><path d="M18.4766 48.1498L9.81724 53.0998L3.72552 49.4998V38.1498L0 36.0498V51.5998L9.81724 57.3998L22.2021 50.2498L18.4766 48.1498Z" fill="white"></path><path d="M0 21.8501V31.5501L8.00483 36.1501L11.7303 34.0501L3.72552 29.4501V24.0001L0 21.8501Z" fill="white"></path><path d="M21.1952 46.7L31.2138 52.4L41.1821 46.7V30.05L62.3772 17.85L31.1635 0L0 17.9L21.1952 30.1V46.7ZM31.1635 4.25L45.3607 12.4L31.1635 20.5L17.0166 12.4L31.1635 4.25ZM7.45104 17.9L13.291 14.5L31.1635 24.75L49.0862 14.5L54.9262 17.85L37.4566 27.95V44.55L31.2138 48.15L24.971 44.55V27.95L7.45104 17.9Z" fill="white"></path><path d="M23.9641 61.3502L31.1635 56.7502V52.4502L20.3393 59.3502L16.8655 57.4502L13.3917 59.4502L31.1635 69.8502V65.6002L23.9641 61.3502Z" fill="white"></path><path d="M18.4766 48.1498L9.81724 53.0998L3.72552 49.4998V38.1498L0 36.0498V51.5998L9.81724 57.3998L22.2021 50.2498L18.4766 48.1498Z" fill="white"></path><path d="M0 21.8501V31.5501L8.00483 36.1501L11.7303 34.0501L3.72552 29.4501V24.0001L0 21.8501Z" fill="white"></path><path d="M24.9207 44.55V27.95L7.45104 17.9L13.291 14.5L31.1635 24.8V20.5L17.0166 12.4L31.1635 4.25V0L0 17.9L21.1952 30.05V46.7L31.1635 52.4V48.15L24.9207 44.55Z" fill="white"></path></svg>